<mxfile host="app.diagrams.net" modified="2024-07-04T06:46:17.466Z" agent="Mozilla/5.0 (Macintosh; Intel Mac OS X 10_15_7) AppleWebKit/605.1.15 (KHTML, like Gecko) Version/17.5 Safari/605.1.15" version="24.6.4" etag="v4ppIU1ROarE0JchkiHw" type="github">
  <diagram name="Page-1" id="L6Mv1XmULaL9AIVY4roJ">
    <mxGraphModel>
      <root>
        <mxCell id="0" />
        <mxCell id="1" parent="0" />
      </root>
    </mxGraphModel>
  </diagram>
</mxfile>
